<?xml version="1.0" encoding="utf-8"?>
<!-- Generator: Adobe Illustrator 18.1.1, SVG Export Plug-In . SVG Version: 6.00 Build 0)  -->
<!DOCTYPE svg PUBLIC "-//W3C//DTD SVG 1.1//EN" "http://www.w3.org/Graphics/SVG/1.1/DTD/svg11.dtd">
<svg version="1.1" id="Layer_1" xmlns="http://www.w3.org/2000/svg" xmlns:xlink="http://www.w3.org/1999/xlink" x="0px" y="0px"
	 viewBox="28.8 151.3 537.7 539.3" enable-background="new 28.8 151.3 537.7 539.3" xml:space="preserve">
<g>
	<g>
		<path fill="#E25454" d="M297.6,679c-68.6,0-133.4-26.9-182.2-75.8c-48.9-48.9-75.8-113.6-75.8-182.2c0-68.6,26.9-133.4,75.8-182.2
			c48.9-48.9,113.6-75.8,182.2-75.8c68.6,0,133.4,26.9,182.2,75.8c48.9,48.9,75.8,113.6,75.8,182.2c0,68.6-26.9,133.4-75.8,182.2
			S366.3,679,297.6,679z M384.5,528.3l20.6-20.6l-86.8-86.8l86.8-86.8l-20.6-20.6l-86.8,86.8l-86.8-86.8l-20.6,20.6l86.8,86.8
			l-86.8,86.8l20.6,20.6l86.8-86.8L384.5,528.3z"/>
		<path fill="#FFFFFF" d="M297.6,172.9c136.4,0,248,111.6,248,248s-111.6,248-248,248s-248-111.6-248-248S161.2,172.9,297.6,172.9
			 M297.6,386.2l-86.8-86.8l-34.7,34.7l86.8,86.8l-86.8,86.8l34.7,34.7l86.8-86.8l86.8,86.8l34.7-34.7l-86.8-86.8l86.8-86.8
			l-34.7-34.7L297.6,386.2 M297.6,152.9c-36,0-71.1,7.1-104.1,21.2c-31.9,13.5-60.5,32.9-85.2,57.6c-24.6,24.6-44,53.3-57.6,85.2
			c-14,33.1-21.2,68.1-21.2,104.1s7.1,71.1,21.2,104.1c13.5,31.9,32.9,60.5,57.6,85.2s53.3,44,85.2,57.6
			c33.1,14,68.1,21.2,104.1,21.2s71.1-7.1,104.1-21.2c31.9-13.5,60.5-32.9,85.2-57.6c24.6-24.6,44-53.3,57.6-85.2
			c14-33.1,21.2-68.1,21.2-104.1s-7.1-71.1-21.2-104.1c-13.5-31.9-32.9-60.5-57.6-85.2c-24.6-24.6-53.3-44-85.2-57.6
			C368.7,160,333.7,152.9,297.6,152.9L297.6,152.9z M297.6,414.5l14.1-14.1l72.7-72.7l6.4,6.4l-72.7,72.7l-14.1,14.1l14.1,14.1
			l72.7,72.7l-6.4,6.4l-72.7-72.7l-14.1-14.1l-14.1,14.1l-72.7,72.7l-6.4-6.4l72.7-72.7l14.1-14.1l-14.1-14.1l-72.7-72.7l6.4-6.4
			l72.7,72.7L297.6,414.5L297.6,414.5z"/>
	</g>
</g>
<rect x="273.1" y="273.6" transform="matrix(0.7071 -0.7071 0.7071 0.7071 -210.4763 333.7552)" fill="#FFFFFF" width="49.1" height="294.6"/>
<rect x="272.9" y="273.5" transform="matrix(-0.7071 -0.7071 0.7071 -0.7071 210.3708 928.8697)" fill="#FFFFFF" width="49.3" height="294.6"/>
</svg>
